<?xml version="1.0" encoding="UTF-8"?>
<svg xmlns="http://www.w3.org/2000/svg" xmlns:xlink="http://www.w3.org/1999/xlink" width="1920" height="1080" viewBox="0 0 1920 1080">
<defs>
<g>
<g id="glyph-0-0">
<path d="M 4.886719 0 L 2.804688 0 L 2.804688 -0.210938 C 2.851562 -0.214844 2.917969 -0.21875 3.003906 -0.226562 C 3.089844 -0.234375 3.148438 -0.246094 3.183594 -0.261719 C 3.25 -0.289062 3.296875 -0.324219 3.320312 -0.367188 C 3.347656 -0.410156 3.359375 -0.46875 3.359375 -0.539062 L 3.359375 -1.863281 L 1.714844 -1.863281 L 1.714844 -0.566406 C 1.714844 -0.503906 1.726562 -0.449219 1.753906 -0.402344 C 1.78125 -0.351562 1.824219 -0.316406 1.886719 -0.289062 C 1.921875 -0.273438 1.980469 -0.257812 2.066406 -0.242188 C 2.148438 -0.226562 2.214844 -0.214844 2.269531 -0.210938 L 2.269531 0 L 0.1875 0 L 0.1875 -0.210938 C 0.230469 -0.214844 0.300781 -0.21875 0.386719 -0.230469 C 0.472656 -0.238281 0.539062 -0.25 0.578125 -0.265625 C 0.644531 -0.289062 0.6875 -0.324219 0.714844 -0.371094 C 0.738281 -0.421875 0.75 -0.476562 0.75 -0.542969 L 0.75 -3.265625 C 0.75 -3.328125 0.738281 -3.382812 0.71875 -3.425781 C 0.695312 -3.46875 0.648438 -3.507812 0.578125 -3.539062 C 0.527344 -3.5625 0.457031 -3.585938 0.371094 -3.605469 C 0.285156 -3.625 0.226562 -3.632812 0.1875 -3.636719 L 0.1875 -3.847656 L 2.269531 -3.847656 L 2.269531 -3.636719 C 2.210938 -3.632812 2.144531 -3.625 2.066406 -3.609375 C 1.988281 -3.597656 1.929688 -3.582031 1.886719 -3.570312 C 1.816406 -3.546875 1.769531 -3.507812 1.75 -3.457031 C 1.726562 -3.40625 1.714844 -3.351562 1.714844 -3.292969 L 1.714844 -2.144531 L 3.359375 -2.144531 L 3.359375 -3.265625 C 3.359375 -3.328125 3.347656 -3.382812 3.324219 -3.425781 C 3.300781 -3.46875 3.253906 -3.507812 3.183594 -3.539062 C 3.136719 -3.5625 3.074219 -3.582031 2.992188 -3.601562 C 2.914062 -3.621094 2.851562 -3.632812 2.804688 -3.636719 L 2.804688 -3.847656 L 4.886719 -3.847656 L 4.886719 -3.636719 C 4.828125 -3.632812 4.761719 -3.625 4.691406 -3.613281 C 4.617188 -3.601562 4.554688 -3.589844 4.496094 -3.570312 C 4.425781 -3.546875 4.378906 -3.507812 4.355469 -3.457031 C 4.332031 -3.410156 4.320312 -3.351562 4.320312 -3.292969 L 4.320312 -0.566406 C 4.320312 -0.5 4.332031 -0.445312 4.355469 -0.402344 C 4.378906 -0.355469 4.425781 -0.316406 4.496094 -0.289062 C 4.539062 -0.269531 4.601562 -0.253906 4.683594 -0.238281 C 4.765625 -0.222656 4.832031 -0.214844 4.886719 -0.210938 Z "/>
</g>
<g id="glyph-0-1">
<path d="M 3.742188 -3.421875 C 3.933594 -3.246094 4.085938 -3.039062 4.195312 -2.792969 C 4.308594 -2.546875 4.363281 -2.265625 4.363281 -1.949219 C 4.363281 -1.671875 4.316406 -1.402344 4.222656 -1.148438 C 4.128906 -0.898438 3.992188 -0.679688 3.8125 -0.496094 C 3.628906 -0.304688 3.410156 -0.160156 3.15625 -0.0546875 C 2.90625 0.0546875 2.605469 0.105469 2.261719 0.105469 C 1.980469 0.105469 1.714844 0.0585938 1.464844 -0.03125 C 1.214844 -0.125 0.996094 -0.257812 0.804688 -0.433594 C 0.617188 -0.605469 0.46875 -0.816406 0.359375 -1.0625 C 0.246094 -1.308594 0.191406 -1.582031 0.191406 -1.882812 C 0.191406 -2.199219 0.246094 -2.484375 0.355469 -2.738281 C 0.460938 -2.996094 0.609375 -3.214844 0.796875 -3.398438 C 0.984375 -3.574219 1.203125 -3.714844 1.460938 -3.808594 C 1.71875 -3.90625 1.988281 -3.957031 2.277344 -3.957031 C 2.566406 -3.957031 2.835938 -3.910156 3.089844 -3.8125 C 3.339844 -3.71875 3.558594 -3.589844 3.742188 -3.421875 M 3.046875 -0.664062 C 3.128906 -0.832031 3.1875 -1.015625 3.222656 -1.226562 C 3.257812 -1.433594 3.277344 -1.667969 3.277344 -1.929688 C 3.277344 -2.15625 3.261719 -2.371094 3.230469 -2.582031 C 3.199219 -2.792969 3.144531 -2.980469 3.066406 -3.144531 C 2.992188 -3.3125 2.886719 -3.441406 2.757812 -3.542969 C 2.628906 -3.640625 2.46875 -3.691406 2.277344 -3.691406 C 1.953125 -3.691406 1.703125 -3.535156 1.53125 -3.226562 C 1.363281 -2.914062 1.277344 -2.476562 1.277344 -1.910156 C 1.277344 -1.667969 1.296875 -1.441406 1.332031 -1.226562 C 1.371094 -1.015625 1.429688 -0.828125 1.507812 -0.667969 C 1.589844 -0.507812 1.691406 -0.382812 1.816406 -0.292969 C 1.941406 -0.203125 2.097656 -0.15625 2.277344 -0.15625 C 2.457031 -0.15625 2.613281 -0.203125 2.738281 -0.292969 C 2.867188 -0.382812 2.96875 -0.507812 3.046875 -0.664062 Z "/>
</g>
<g id="glyph-0-2">
<path d="M 6.363281 -3.632812 C 6.304688 -3.628906 6.25 -3.613281 6.195312 -3.597656 C 6.136719 -3.578125 6.082031 -3.554688 6.027344 -3.523438 C 5.945312 -3.476562 5.886719 -3.425781 5.851562 -3.371094 C 5.816406 -3.3125 5.78125 -3.246094 5.753906 -3.164062 C 5.65625 -2.890625 5.5 -2.449219 5.292969 -1.84375 C 5.085938 -1.238281 4.871094 -0.609375 4.648438 0.0429688 L 4.097656 0.0429688 L 3.085938 -2.816406 L 2.167969 0.0429688 L 1.621094 0.0429688 C 1.320312 -0.835938 1.089844 -1.511719 0.929688 -1.988281 C 0.765625 -2.460938 0.632812 -2.859375 0.519531 -3.183594 C 0.488281 -3.28125 0.449219 -3.351562 0.402344 -3.394531 C 0.359375 -3.441406 0.304688 -3.484375 0.234375 -3.53125 C 0.1875 -3.5625 0.136719 -3.585938 0.078125 -3.601562 C 0.0234375 -3.617188 -0.0390625 -3.628906 -0.109375 -3.636719 L -0.109375 -3.847656 L 1.941406 -3.847656 L 1.941406 -3.644531 C 1.820312 -3.628906 1.730469 -3.613281 1.671875 -3.601562 C 1.613281 -3.585938 1.566406 -3.574219 1.53125 -3.558594 C 1.5 -3.542969 1.480469 -3.53125 1.472656 -3.511719 C 1.464844 -3.496094 1.460938 -3.484375 1.460938 -3.46875 C 1.460938 -3.445312 1.464844 -3.421875 1.46875 -3.398438 C 1.476562 -3.371094 1.484375 -3.347656 1.492188 -3.316406 C 1.535156 -3.175781 1.621094 -2.90625 1.753906 -2.511719 C 1.886719 -2.121094 2.046875 -1.628906 2.242188 -1.046875 L 3.121094 -3.847656 L 3.695312 -3.847656 L 4.707031 -0.957031 C 4.859375 -1.421875 4.976562 -1.800781 5.066406 -2.097656 C 5.15625 -2.390625 5.234375 -2.644531 5.292969 -2.855469 C 5.332031 -2.980469 5.359375 -3.089844 5.382812 -3.175781 C 5.402344 -3.261719 5.414062 -3.339844 5.414062 -3.402344 C 5.414062 -3.441406 5.394531 -3.472656 5.359375 -3.5 C 5.324219 -3.527344 5.277344 -3.550781 5.21875 -3.570312 C 5.167969 -3.585938 5.101562 -3.597656 5.023438 -3.609375 C 4.941406 -3.621094 4.871094 -3.628906 4.8125 -3.632812 L 4.8125 -3.847656 L 6.363281 -3.847656 Z "/>
</g>
<g id="glyph-0-3">
</g>
<g id="glyph-0-4">
<path d="M 2.304688 0 L 0.171875 0 L 0.171875 -0.210938 C 0.21875 -0.214844 0.292969 -0.21875 0.386719 -0.226562 C 0.480469 -0.234375 0.546875 -0.246094 0.582031 -0.261719 C 0.648438 -0.289062 0.695312 -0.324219 0.71875 -0.367188 C 0.746094 -0.410156 0.757812 -0.46875 0.757812 -0.539062 L 0.757812 -3.265625 C 0.757812 -3.328125 0.746094 -3.382812 0.722656 -3.429688 C 0.699219 -3.476562 0.652344 -3.515625 0.582031 -3.542969 C 0.539062 -3.5625 0.476562 -3.578125 0.390625 -3.597656 C 0.304688 -3.617188 0.230469 -3.628906 0.171875 -3.636719 L 0.171875 -3.847656 L 2.304688 -3.847656 L 2.304688 -3.636719 C 2.25 -3.632812 2.183594 -3.625 2.101562 -3.613281 C 2.019531 -3.605469 1.953125 -3.589844 1.894531 -3.574219 C 1.824219 -3.550781 1.777344 -3.511719 1.753906 -3.464844 C 1.730469 -3.414062 1.71875 -3.355469 1.71875 -3.292969 L 1.71875 -0.566406 C 1.71875 -0.5 1.730469 -0.445312 1.757812 -0.398438 C 1.78125 -0.355469 1.828125 -0.316406 1.894531 -0.289062 C 1.933594 -0.269531 1.996094 -0.253906 2.085938 -0.238281 C 2.171875 -0.226562 2.246094 -0.214844 2.304688 -0.210938 Z "/>
</g>
<g id="glyph-0-5">
<path d="M 3.765625 -2.75 L 3.554688 -2.75 C 3.496094 -2.914062 3.40625 -3.089844 3.285156 -3.277344 C 3.160156 -3.464844 3.046875 -3.566406 2.941406 -3.582031 C 2.882812 -3.589844 2.8125 -3.59375 2.726562 -3.601562 C 2.644531 -3.605469 2.570312 -3.609375 2.507812 -3.609375 L 2.382812 -3.609375 L 2.382812 -0.589844 C 2.382812 -0.523438 2.394531 -0.464844 2.417969 -0.417969 C 2.441406 -0.367188 2.488281 -0.328125 2.554688 -0.296875 C 2.597656 -0.28125 2.660156 -0.265625 2.75 -0.25 C 2.835938 -0.230469 2.910156 -0.21875 2.972656 -0.210938 L 2.972656 0 L 0.828125 0 L 0.828125 -0.210938 C 0.878906 -0.21875 0.953125 -0.226562 1.046875 -0.234375 C 1.144531 -0.246094 1.207031 -0.257812 1.242188 -0.269531 C 1.3125 -0.300781 1.359375 -0.339844 1.382812 -0.386719 C 1.40625 -0.4375 1.417969 -0.496094 1.417969 -0.5625 L 1.417969 -3.609375 L 1.292969 -3.609375 C 1.230469 -3.609375 1.15625 -3.605469 1.074219 -3.601562 C 0.988281 -3.59375 0.917969 -3.589844 0.859375 -3.582031 C 0.753906 -3.566406 0.640625 -3.464844 0.515625 -3.277344 C 0.390625 -3.089844 0.304688 -2.914062 0.246094 -2.75 L 0.0351562 -2.75 L 0.0351562 -3.847656 L 3.765625 -3.847656 Z "/>
</g>
<g id="glyph-0-6">
<path d="M 4.605469 0 L 3.128906 0 C 2.875 -0.390625 2.664062 -0.703125 2.492188 -0.933594 C 2.324219 -1.164062 2.113281 -1.433594 1.863281 -1.734375 L 1.714844 -1.734375 L 1.714844 -0.566406 C 1.714844 -0.5 1.726562 -0.445312 1.75 -0.402344 C 1.777344 -0.355469 1.820312 -0.316406 1.890625 -0.289062 C 1.925781 -0.273438 1.980469 -0.257812 2.050781 -0.242188 C 2.125 -0.226562 2.1875 -0.21875 2.242188 -0.210938 L 2.242188 0 L 0.1875 0 L 0.1875 -0.210938 C 0.238281 -0.21875 0.308594 -0.226562 0.394531 -0.234375 C 0.480469 -0.246094 0.542969 -0.257812 0.578125 -0.269531 C 0.648438 -0.300781 0.691406 -0.335938 0.714844 -0.382812 C 0.738281 -0.425781 0.75 -0.480469 0.75 -0.550781 L 0.75 -3.265625 C 0.75 -3.332031 0.742188 -3.386719 0.722656 -3.429688 C 0.703125 -3.472656 0.652344 -3.511719 0.578125 -3.542969 C 0.519531 -3.566406 0.453125 -3.585938 0.371094 -3.601562 C 0.292969 -3.617188 0.230469 -3.628906 0.1875 -3.636719 L 0.1875 -3.847656 L 2.347656 -3.847656 C 2.828125 -3.847656 3.195312 -3.773438 3.445312 -3.625 C 3.695312 -3.472656 3.824219 -3.242188 3.824219 -2.9375 C 3.824219 -2.667969 3.746094 -2.453125 3.589844 -2.289062 C 3.4375 -2.125 3.199219 -1.996094 2.882812 -1.90625 C 3.007812 -1.746094 3.148438 -1.5625 3.3125 -1.351562 C 3.476562 -1.140625 3.648438 -0.925781 3.824219 -0.707031 C 3.882812 -0.636719 3.957031 -0.550781 4.054688 -0.449219 C 4.152344 -0.347656 4.238281 -0.285156 4.3125 -0.261719 C 4.351562 -0.246094 4.40625 -0.238281 4.46875 -0.226562 C 4.535156 -0.21875 4.578125 -0.214844 4.605469 -0.210938 L 4.605469 0 M 2.757812 -2.863281 C 2.757812 -3.117188 2.6875 -3.304688 2.542969 -3.425781 C 2.398438 -3.542969 2.195312 -3.601562 1.929688 -3.601562 L 1.714844 -3.601562 L 1.714844 -1.992188 L 1.921875 -1.992188 C 2.1875 -1.992188 2.394531 -2.0625 2.539062 -2.199219 C 2.6875 -2.339844 2.757812 -2.558594 2.757812 -2.863281 Z "/>
</g>
<g id="glyph-0-7">
<path d="M 4.710938 0 L 3.183594 0 C 2.957031 -0.351562 2.75 -0.648438 2.5625 -0.882812 C 2.378906 -1.121094 2.144531 -1.417969 1.855469 -1.777344 L 1.714844 -1.777344 L 1.714844 -0.566406 C 1.714844 -0.5 1.726562 -0.445312 1.75 -0.402344 C 1.773438 -0.355469 1.820312 -0.316406 1.890625 -0.289062 C 1.921875 -0.273438 1.972656 -0.257812 2.035156 -0.246094 C 2.101562 -0.230469 2.164062 -0.21875 2.226562 -0.210938 L 2.226562 0 L 0.183594 0 L 0.183594 -0.210938 C 0.230469 -0.214844 0.300781 -0.21875 0.390625 -0.226562 C 0.480469 -0.234375 0.542969 -0.246094 0.578125 -0.261719 C 0.644531 -0.285156 0.6875 -0.320312 0.714844 -0.367188 C 0.738281 -0.410156 0.75 -0.46875 0.75 -0.539062 L 0.75 -3.265625 C 0.75 -3.328125 0.742188 -3.382812 0.71875 -3.425781 C 0.695312 -3.46875 0.648438 -3.507812 0.578125 -3.542969 C 0.523438 -3.566406 0.453125 -3.589844 0.375 -3.605469 C 0.292969 -3.621094 0.230469 -3.632812 0.183594 -3.636719 L 0.183594 -3.847656 L 2.296875 -3.847656 L 2.296875 -3.636719 C 2.238281 -3.632812 2.171875 -3.625 2.09375 -3.613281 C 2.015625 -3.605469 1.945312 -3.589844 1.890625 -3.574219 C 1.820312 -3.550781 1.773438 -3.511719 1.75 -3.460938 C 1.726562 -3.410156 1.714844 -3.355469 1.714844 -3.292969 L 1.714844 -1.996094 L 1.828125 -1.996094 C 1.96875 -2.125 2.132812 -2.28125 2.320312 -2.460938 C 2.511719 -2.640625 2.65625 -2.789062 2.757812 -2.90625 C 2.902344 -3.066406 3.011719 -3.195312 3.078125 -3.289062 C 3.144531 -3.382812 3.179688 -3.464844 3.179688 -3.53125 C 3.179688 -3.5625 3.148438 -3.585938 3.082031 -3.601562 C 3.015625 -3.617188 2.917969 -3.628906 2.785156 -3.636719 L 2.785156 -3.847656 L 4.457031 -3.847656 L 4.457031 -3.636719 C 4.253906 -3.617188 4.085938 -3.578125 3.949219 -3.527344 C 3.808594 -3.476562 3.675781 -3.390625 3.539062 -3.269531 C 3.34375 -3.09375 3.1875 -2.945312 3.0625 -2.816406 C 2.933594 -2.691406 2.773438 -2.527344 2.578125 -2.328125 C 2.75 -2.117188 2.960938 -1.859375 3.203125 -1.550781 C 3.449219 -1.246094 3.691406 -0.945312 3.933594 -0.652344 C 3.992188 -0.578125 4.0625 -0.507812 4.144531 -0.441406 C 4.222656 -0.371094 4.3125 -0.316406 4.40625 -0.277344 C 4.453125 -0.257812 4.503906 -0.242188 4.5625 -0.230469 C 4.617188 -0.21875 4.667969 -0.214844 4.710938 -0.210938 Z "/>
</g>
<g id="glyph-0-8">
<path d="M 1.800781 0.105469 C 1.566406 0.105469 1.347656 0.078125 1.144531 0.0195312 C 0.941406 -0.0429688 0.769531 -0.109375 0.625 -0.191406 L 0.441406 0 L 0.207031 0 L 0.171875 -1.390625 L 0.40625 -1.390625 C 0.460938 -1.257812 0.527344 -1.121094 0.609375 -0.972656 C 0.6875 -0.828125 0.78125 -0.695312 0.890625 -0.578125 C 1 -0.457031 1.125 -0.359375 1.261719 -0.28125 C 1.398438 -0.207031 1.554688 -0.167969 1.738281 -0.167969 C 1.984375 -0.167969 2.171875 -0.226562 2.304688 -0.347656 C 2.4375 -0.46875 2.5 -0.621094 2.5 -0.804688 C 2.5 -0.953125 2.445312 -1.078125 2.335938 -1.183594 C 2.222656 -1.285156 2.050781 -1.371094 1.816406 -1.449219 C 1.664062 -1.496094 1.527344 -1.542969 1.398438 -1.582031 C 1.269531 -1.625 1.152344 -1.667969 1.039062 -1.710938 C 0.78125 -1.816406 0.589844 -1.960938 0.460938 -2.15625 C 0.335938 -2.347656 0.273438 -2.5625 0.273438 -2.796875 C 0.273438 -2.949219 0.304688 -3.09375 0.371094 -3.230469 C 0.4375 -3.371094 0.53125 -3.496094 0.65625 -3.605469 C 0.777344 -3.707031 0.929688 -3.792969 1.113281 -3.859375 C 1.300781 -3.921875 1.503906 -3.957031 1.722656 -3.957031 C 1.9375 -3.957031 2.136719 -3.925781 2.320312 -3.867188 C 2.507812 -3.804688 2.65625 -3.746094 2.761719 -3.6875 L 2.925781 -3.847656 L 3.164062 -3.847656 L 3.183594 -2.535156 L 2.953125 -2.535156 C 2.898438 -2.679688 2.832031 -2.824219 2.761719 -2.96875 C 2.6875 -3.117188 2.609375 -3.242188 2.527344 -3.339844 C 2.441406 -3.445312 2.335938 -3.527344 2.222656 -3.589844 C 2.105469 -3.652344 1.96875 -3.683594 1.816406 -3.683594 C 1.621094 -3.683594 1.460938 -3.628906 1.335938 -3.519531 C 1.210938 -3.40625 1.148438 -3.269531 1.148438 -3.109375 C 1.148438 -2.953125 1.203125 -2.828125 1.3125 -2.730469 C 1.417969 -2.632812 1.585938 -2.546875 1.816406 -2.472656 C 1.949219 -2.425781 2.085938 -2.382812 2.222656 -2.335938 C 2.363281 -2.292969 2.488281 -2.246094 2.597656 -2.207031 C 2.859375 -2.105469 3.058594 -1.964844 3.195312 -1.785156 C 3.332031 -1.609375 3.398438 -1.386719 3.398438 -1.121094 C 3.398438 -0.957031 3.359375 -0.792969 3.28125 -0.636719 C 3.203125 -0.484375 3.101562 -0.351562 2.96875 -0.25 C 2.824219 -0.136719 2.65625 -0.046875 2.464844 0.0117188 C 2.277344 0.0742188 2.054688 0.105469 1.800781 0.105469 Z "/>
</g>
</g>
</defs>
<g fill="rgb(18.431373%, 41.960784%, 100%)" fill-opacity="1">
<use xlink:href="#glyph-0-0" x="30" y="25.094727"/>
<use xlink:href="#glyph-0-1" x="35" y="25.094727"/>
<use xlink:href="#glyph-0-2" x="40" y="25.094727"/>
<use xlink:href="#glyph-0-3" x="46" y="25.094727"/>
<use xlink:href="#glyph-0-4" x="47" y="25.094727"/>
<use xlink:href="#glyph-0-5" x="49" y="25.094727"/>
<use xlink:href="#glyph-0-3" x="53" y="25.094727"/>
<use xlink:href="#glyph-0-2" x="54" y="25.094727"/>
<use xlink:href="#glyph-0-1" x="60" y="25.094727"/>
<use xlink:href="#glyph-0-6" x="65" y="25.094727"/>
<use xlink:href="#glyph-0-7" x="69" y="25.094727"/>
<use xlink:href="#glyph-0-8" x="74" y="25.094727"/>
</g>
</svg>
