<?xml version="1.0" encoding="UTF-8"?>
<svg xmlns="http://www.w3.org/2000/svg" xmlns:xlink="http://www.w3.org/1999/xlink" width="1920" height="1080" viewBox="0 0 1920 1080">
<defs>
<g>
<g id="glyph-0-0">
<path d="M 11.347656 0 L 5.894531 0 L 5.894531 -0.550781 C 6.148438 -0.570312 6.449219 -0.613281 6.789062 -0.6875 C 7.132812 -0.761719 7.304688 -0.851562 7.304688 -0.960938 C 7.304688 -0.996094 7.300781 -1.039062 7.292969 -1.085938 C 7.285156 -1.132812 7.265625 -1.195312 7.234375 -1.277344 L 6.378906 -3.351562 L 2.925781 -3.351562 C 2.84375 -3.15625 2.757812 -2.929688 2.660156 -2.671875 C 2.566406 -2.414062 2.484375 -2.183594 2.414062 -1.980469 C 2.324219 -1.71875 2.269531 -1.527344 2.253906 -1.410156 C 2.238281 -1.292969 2.230469 -1.210938 2.230469 -1.164062 C 2.230469 -1.011719 2.34375 -0.886719 2.570312 -0.78125 C 2.800781 -0.671875 3.179688 -0.597656 3.710938 -0.550781 L 3.710938 0 L -0.394531 0 L -0.394531 -0.550781 C -0.238281 -0.558594 -0.0664062 -0.585938 0.128906 -0.625 C 0.324219 -0.664062 0.480469 -0.71875 0.59375 -0.789062 C 0.785156 -0.902344 0.949219 -1.042969 1.082031 -1.207031 C 1.214844 -1.371094 1.328125 -1.566406 1.417969 -1.792969 C 1.964844 -3.113281 2.507812 -4.4375 3.058594 -5.761719 C 3.605469 -7.089844 4.210938 -8.550781 4.875 -10.148438 L 6.285156 -10.148438 C 7.207031 -7.882812 7.925781 -6.089844 8.449219 -4.773438 C 8.972656 -3.457031 9.414062 -2.367188 9.78125 -1.503906 C 9.84375 -1.359375 9.921875 -1.234375 10.015625 -1.117188 C 10.109375 -1.003906 10.242188 -0.894531 10.417969 -0.789062 C 10.546875 -0.714844 10.703125 -0.660156 10.875 -0.621094 C 11.050781 -0.582031 11.207031 -0.558594 11.347656 -0.550781 L 11.347656 0 M 6.089844 -4.046875 L 4.640625 -7.664062 L 3.214844 -4.046875 Z "/>
</g>
<g id="glyph-0-1">
<path d="M 11.628906 -4.070312 C 11.484375 -4.054688 11.355469 -4.039062 11.242188 -4.019531 C 11.128906 -4 10.988281 -3.964844 10.820312 -3.90625 C 10.625 -3.847656 10.5 -3.746094 10.4375 -3.605469 C 10.375 -3.464844 10.347656 -3.316406 10.347656 -3.160156 L 10.347656 -1.996094 C 10.347656 -1.761719 10.347656 -1.570312 10.351562 -1.429688 C 10.359375 -1.285156 10.363281 -1.105469 10.375 -0.894531 C 9.90625 -0.613281 9.210938 -0.347656 8.289062 -0.0976562 C 7.371094 0.152344 6.527344 0.273438 5.753906 0.273438 C 5.03125 0.273438 4.351562 0.164062 3.714844 -0.0585938 C 3.082031 -0.277344 2.523438 -0.609375 2.046875 -1.050781 C 1.566406 -1.488281 1.1875 -2.03125 0.914062 -2.683594 C 0.636719 -3.332031 0.5 -4.074219 0.5 -4.914062 C 0.5 -5.691406 0.628906 -6.414062 0.886719 -7.078125 C 1.148438 -7.742188 1.519531 -8.3125 2.011719 -8.792969 C 2.488281 -9.269531 3.074219 -9.636719 3.761719 -9.894531 C 4.453125 -10.152344 5.214844 -10.28125 6.050781 -10.28125 C 6.621094 -10.28125 7.148438 -10.210938 7.632812 -10.070312 C 8.117188 -9.929688 8.515625 -9.78125 8.828125 -9.621094 L 9.265625 -10.007812 L 9.882812 -10.007812 L 9.945312 -6.355469 L 9.324219 -6.355469 C 8.964844 -7.453125 8.539062 -8.265625 8.039062 -8.800781 C 7.542969 -9.332031 6.910156 -9.597656 6.148438 -9.597656 C 5.246094 -9.597656 4.550781 -9.203125 4.058594 -8.414062 C 3.566406 -7.621094 3.320312 -6.53125 3.320312 -5.144531 C 3.320312 -3.671875 3.5625 -2.519531 4.042969 -1.6875 C 4.527344 -0.855469 5.210938 -0.4375 6.09375 -0.4375 C 6.507812 -0.4375 6.875 -0.5 7.199219 -0.625 C 7.519531 -0.75 7.769531 -0.894531 7.949219 -1.058594 L 7.949219 -3.089844 C 7.949219 -3.257812 7.917969 -3.402344 7.855469 -3.515625 C 7.796875 -3.632812 7.671875 -3.730469 7.488281 -3.816406 C 7.347656 -3.882812 7.171875 -3.933594 6.960938 -3.976562 C 6.75 -4.019531 6.574219 -4.050781 6.433594 -4.070312 L 6.433594 -4.621094 L 11.628906 -4.621094 Z "/>
</g>
<g id="glyph-0-2">
<path d="M 5.996094 0 L 0.445312 0 L 0.445312 -0.550781 C 0.570312 -0.558594 0.757812 -0.574219 1.003906 -0.59375 C 1.25 -0.609375 1.421875 -0.640625 1.515625 -0.675781 C 1.691406 -0.746094 1.808594 -0.839844 1.871094 -0.957031 C 1.9375 -1.070312 1.96875 -1.21875 1.96875 -1.394531 L 1.96875 -8.492188 C 1.96875 -8.652344 1.9375 -8.792969 1.875 -8.914062 C 1.816406 -9.035156 1.695312 -9.136719 1.515625 -9.210938 C 1.402344 -9.257812 1.238281 -9.304688 1.015625 -9.355469 C 0.792969 -9.40625 0.605469 -9.4375 0.445312 -9.457031 L 0.445312 -10.007812 L 5.996094 -10.007812 L 5.996094 -9.457031 C 5.855469 -9.445312 5.675781 -9.421875 5.464844 -9.398438 C 5.253906 -9.371094 5.074219 -9.335938 4.929688 -9.289062 C 4.746094 -9.226562 4.625 -9.132812 4.5625 -9.003906 C 4.503906 -8.875 4.472656 -8.726562 4.472656 -8.5625 L 4.472656 -1.472656 C 4.472656 -1.304688 4.503906 -1.160156 4.566406 -1.039062 C 4.628906 -0.921875 4.75 -0.824219 4.929688 -0.746094 C 5.027344 -0.707031 5.191406 -0.664062 5.421875 -0.625 C 5.648438 -0.585938 5.839844 -0.558594 5.996094 -0.550781 Z "/>
</g>
</g>
</defs>
<g fill="rgb(6.666667%, 12.941176%, 22.745098%)" fill-opacity="1">
<use xlink:href="#glyph-0-0" x="30" y="33.244141"/>
<use xlink:href="#glyph-0-1" x="41" y="33.244141"/>
<use xlink:href="#glyph-0-2" x="53" y="33.244141"/>
</g>
</svg>
