<?xml version="1.0" encoding="UTF-8"?>
<svg xmlns="http://www.w3.org/2000/svg" xmlns:xlink="http://www.w3.org/1999/xlink" width="1920" height="1080" viewBox="0 0 1920 1080">
<defs>
<g>
<g id="glyph-0-0">
<path d="M 4.363281 0 L 2.269531 0 L 2.269531 -0.210938 C 2.367188 -0.21875 2.480469 -0.238281 2.613281 -0.265625 C 2.742188 -0.292969 2.808594 -0.328125 2.808594 -0.367188 C 2.808594 -0.382812 2.808594 -0.398438 2.804688 -0.417969 C 2.800781 -0.4375 2.796875 -0.460938 2.78125 -0.492188 L 2.453125 -1.289062 L 1.125 -1.289062 C 1.09375 -1.214844 1.0625 -1.128906 1.023438 -1.027344 C 0.988281 -0.929688 0.953125 -0.839844 0.929688 -0.761719 C 0.894531 -0.660156 0.875 -0.585938 0.867188 -0.542969 C 0.859375 -0.496094 0.859375 -0.464844 0.859375 -0.449219 C 0.859375 -0.390625 0.902344 -0.339844 0.988281 -0.300781 C 1.078125 -0.257812 1.222656 -0.230469 1.425781 -0.210938 L 1.425781 0 L -0.152344 0 L -0.152344 -0.210938 C -0.09375 -0.214844 -0.0234375 -0.226562 0.0507812 -0.238281 C 0.125 -0.253906 0.183594 -0.277344 0.226562 -0.304688 C 0.300781 -0.347656 0.363281 -0.402344 0.417969 -0.464844 C 0.46875 -0.527344 0.511719 -0.601562 0.546875 -0.6875 C 0.753906 -1.199219 0.964844 -1.707031 1.175781 -2.214844 C 1.386719 -2.726562 1.621094 -3.289062 1.875 -3.902344 L 2.417969 -3.902344 C 2.773438 -3.03125 3.050781 -2.34375 3.25 -1.835938 C 3.449219 -1.332031 3.621094 -0.910156 3.761719 -0.578125 C 3.785156 -0.523438 3.816406 -0.472656 3.851562 -0.429688 C 3.886719 -0.386719 3.941406 -0.34375 4.007812 -0.304688 C 4.058594 -0.273438 4.117188 -0.253906 4.183594 -0.238281 C 4.25 -0.222656 4.3125 -0.214844 4.363281 -0.210938 L 4.363281 0 M 2.34375 -1.558594 L 1.785156 -2.949219 L 1.234375 -1.558594 Z "/>
</g>
<g id="glyph-0-1">
<path d="M 4.605469 0 L 3.128906 0 C 2.875 -0.390625 2.664062 -0.703125 2.492188 -0.933594 C 2.324219 -1.164062 2.113281 -1.433594 1.863281 -1.734375 L 1.714844 -1.734375 L 1.714844 -0.566406 C 1.714844 -0.5 1.726562 -0.445312 1.75 -0.402344 C 1.777344 -0.355469 1.820312 -0.316406 1.890625 -0.289062 C 1.925781 -0.273438 1.980469 -0.257812 2.050781 -0.242188 C 2.125 -0.226562 2.1875 -0.21875 2.242188 -0.210938 L 2.242188 0 L 0.1875 0 L 0.1875 -0.210938 C 0.238281 -0.21875 0.308594 -0.226562 0.394531 -0.234375 C 0.480469 -0.246094 0.542969 -0.257812 0.578125 -0.269531 C 0.648438 -0.300781 0.691406 -0.335938 0.714844 -0.382812 C 0.738281 -0.425781 0.75 -0.480469 0.75 -0.550781 L 0.75 -3.265625 C 0.75 -3.332031 0.742188 -3.386719 0.722656 -3.429688 C 0.703125 -3.472656 0.652344 -3.511719 0.578125 -3.542969 C 0.519531 -3.566406 0.453125 -3.585938 0.371094 -3.601562 C 0.292969 -3.617188 0.230469 -3.628906 0.1875 -3.636719 L 0.1875 -3.847656 L 2.347656 -3.847656 C 2.828125 -3.847656 3.195312 -3.773438 3.445312 -3.625 C 3.695312 -3.472656 3.824219 -3.242188 3.824219 -2.9375 C 3.824219 -2.667969 3.746094 -2.453125 3.589844 -2.289062 C 3.4375 -2.125 3.199219 -1.996094 2.882812 -1.90625 C 3.007812 -1.746094 3.148438 -1.5625 3.3125 -1.351562 C 3.476562 -1.140625 3.648438 -0.925781 3.824219 -0.707031 C 3.882812 -0.636719 3.957031 -0.550781 4.054688 -0.449219 C 4.152344 -0.347656 4.238281 -0.285156 4.3125 -0.261719 C 4.351562 -0.246094 4.40625 -0.238281 4.46875 -0.226562 C 4.535156 -0.21875 4.578125 -0.214844 4.605469 -0.210938 L 4.605469 0 M 2.757812 -2.863281 C 2.757812 -3.117188 2.6875 -3.304688 2.542969 -3.425781 C 2.398438 -3.542969 2.195312 -3.601562 1.929688 -3.601562 L 1.714844 -3.601562 L 1.714844 -1.992188 L 1.921875 -1.992188 C 2.1875 -1.992188 2.394531 -2.0625 2.539062 -2.199219 C 2.6875 -2.339844 2.757812 -2.558594 2.757812 -2.863281 Z "/>
</g>
<g id="glyph-0-2">
<path d="M 2.207031 0.105469 C 1.921875 0.105469 1.660156 0.0585938 1.414062 -0.03125 C 1.167969 -0.121094 0.953125 -0.253906 0.769531 -0.429688 C 0.589844 -0.597656 0.449219 -0.808594 0.347656 -1.0625 C 0.246094 -1.3125 0.191406 -1.585938 0.191406 -1.886719 C 0.191406 -2.1875 0.246094 -2.464844 0.347656 -2.71875 C 0.453125 -2.972656 0.597656 -3.191406 0.785156 -3.378906 C 0.972656 -3.5625 1.191406 -3.703125 1.453125 -3.804688 C 1.710938 -3.90625 1.988281 -3.957031 2.28125 -3.957031 C 2.496094 -3.957031 2.6875 -3.929688 2.863281 -3.875 C 3.039062 -3.824219 3.1875 -3.765625 3.308594 -3.699219 L 3.476562 -3.847656 L 3.714844 -3.847656 L 3.738281 -2.445312 L 3.5 -2.445312 C 3.363281 -2.875 3.203125 -3.1875 3.011719 -3.390625 C 2.820312 -3.589844 2.589844 -3.691406 2.316406 -3.691406 C 1.980469 -3.691406 1.71875 -3.542969 1.542969 -3.242188 C 1.367188 -2.941406 1.277344 -2.523438 1.277344 -1.980469 C 1.277344 -1.675781 1.308594 -1.414062 1.367188 -1.195312 C 1.429688 -0.980469 1.507812 -0.804688 1.605469 -0.671875 C 1.710938 -0.535156 1.835938 -0.433594 1.976562 -0.371094 C 2.121094 -0.304688 2.277344 -0.273438 2.449219 -0.273438 C 2.703125 -0.273438 2.929688 -0.34375 3.128906 -0.480469 C 3.324219 -0.617188 3.503906 -0.824219 3.667969 -1.105469 L 3.902344 -0.964844 C 3.824219 -0.804688 3.734375 -0.660156 3.636719 -0.535156 C 3.535156 -0.410156 3.421875 -0.300781 3.289062 -0.210938 C 3.148438 -0.113281 2.988281 -0.0351562 2.816406 0.0234375 C 2.644531 0.078125 2.441406 0.105469 2.207031 0.105469 Z "/>
</g>
<g id="glyph-0-3">
<path d="M 4.886719 0 L 2.804688 0 L 2.804688 -0.210938 C 2.851562 -0.214844 2.917969 -0.21875 3.003906 -0.226562 C 3.089844 -0.234375 3.148438 -0.246094 3.183594 -0.261719 C 3.25 -0.289062 3.296875 -0.324219 3.320312 -0.367188 C 3.347656 -0.410156 3.359375 -0.46875 3.359375 -0.539062 L 3.359375 -1.863281 L 1.714844 -1.863281 L 1.714844 -0.566406 C 1.714844 -0.503906 1.726562 -0.449219 1.753906 -0.402344 C 1.78125 -0.351562 1.824219 -0.316406 1.886719 -0.289062 C 1.921875 -0.273438 1.980469 -0.257812 2.066406 -0.242188 C 2.148438 -0.226562 2.214844 -0.214844 2.269531 -0.210938 L 2.269531 0 L 0.1875 0 L 0.1875 -0.210938 C 0.230469 -0.214844 0.300781 -0.21875 0.386719 -0.230469 C 0.472656 -0.238281 0.539062 -0.25 0.578125 -0.265625 C 0.644531 -0.289062 0.6875 -0.324219 0.714844 -0.371094 C 0.738281 -0.421875 0.75 -0.476562 0.75 -0.542969 L 0.75 -3.265625 C 0.75 -3.328125 0.738281 -3.382812 0.71875 -3.425781 C 0.695312 -3.46875 0.648438 -3.507812 0.578125 -3.539062 C 0.527344 -3.5625 0.457031 -3.585938 0.371094 -3.605469 C 0.285156 -3.625 0.226562 -3.632812 0.1875 -3.636719 L 0.1875 -3.847656 L 2.269531 -3.847656 L 2.269531 -3.636719 C 2.210938 -3.632812 2.144531 -3.625 2.066406 -3.609375 C 1.988281 -3.597656 1.929688 -3.582031 1.886719 -3.570312 C 1.816406 -3.546875 1.769531 -3.507812 1.75 -3.457031 C 1.726562 -3.40625 1.714844 -3.351562 1.714844 -3.292969 L 1.714844 -2.144531 L 3.359375 -2.144531 L 3.359375 -3.265625 C 3.359375 -3.328125 3.347656 -3.382812 3.324219 -3.425781 C 3.300781 -3.46875 3.253906 -3.507812 3.183594 -3.539062 C 3.136719 -3.5625 3.074219 -3.582031 2.992188 -3.601562 C 2.914062 -3.621094 2.851562 -3.632812 2.804688 -3.636719 L 2.804688 -3.847656 L 4.886719 -3.847656 L 4.886719 -3.636719 C 4.828125 -3.632812 4.761719 -3.625 4.691406 -3.613281 C 4.617188 -3.601562 4.554688 -3.589844 4.496094 -3.570312 C 4.425781 -3.546875 4.378906 -3.507812 4.355469 -3.457031 C 4.332031 -3.410156 4.320312 -3.351562 4.320312 -3.292969 L 4.320312 -0.566406 C 4.320312 -0.5 4.332031 -0.445312 4.355469 -0.402344 C 4.378906 -0.355469 4.425781 -0.316406 4.496094 -0.289062 C 4.539062 -0.269531 4.601562 -0.253906 4.683594 -0.238281 C 4.765625 -0.222656 4.832031 -0.214844 4.886719 -0.210938 Z "/>
</g>
<g id="glyph-0-4">
<path d="M 2.304688 0 L 0.171875 0 L 0.171875 -0.210938 C 0.21875 -0.214844 0.292969 -0.21875 0.386719 -0.226562 C 0.480469 -0.234375 0.546875 -0.246094 0.582031 -0.261719 C 0.648438 -0.289062 0.695312 -0.324219 0.71875 -0.367188 C 0.746094 -0.410156 0.757812 -0.46875 0.757812 -0.539062 L 0.757812 -3.265625 C 0.757812 -3.328125 0.746094 -3.382812 0.722656 -3.429688 C 0.699219 -3.476562 0.652344 -3.515625 0.582031 -3.542969 C 0.539062 -3.5625 0.476562 -3.578125 0.390625 -3.597656 C 0.304688 -3.617188 0.230469 -3.628906 0.171875 -3.636719 L 0.171875 -3.847656 L 2.304688 -3.847656 L 2.304688 -3.636719 C 2.25 -3.632812 2.183594 -3.625 2.101562 -3.613281 C 2.019531 -3.605469 1.953125 -3.589844 1.894531 -3.574219 C 1.824219 -3.550781 1.777344 -3.511719 1.753906 -3.464844 C 1.730469 -3.414062 1.71875 -3.355469 1.71875 -3.292969 L 1.71875 -0.566406 C 1.71875 -0.5 1.730469 -0.445312 1.757812 -0.398438 C 1.78125 -0.355469 1.828125 -0.316406 1.894531 -0.289062 C 1.933594 -0.269531 1.996094 -0.253906 2.085938 -0.238281 C 2.171875 -0.226562 2.246094 -0.214844 2.304688 -0.210938 Z "/>
</g>
<g id="glyph-0-5">
<path d="M 3.765625 -2.75 L 3.554688 -2.75 C 3.496094 -2.914062 3.40625 -3.089844 3.285156 -3.277344 C 3.160156 -3.464844 3.046875 -3.566406 2.941406 -3.582031 C 2.882812 -3.589844 2.8125 -3.59375 2.726562 -3.601562 C 2.644531 -3.605469 2.570312 -3.609375 2.507812 -3.609375 L 2.382812 -3.609375 L 2.382812 -0.589844 C 2.382812 -0.523438 2.394531 -0.464844 2.417969 -0.417969 C 2.441406 -0.367188 2.488281 -0.328125 2.554688 -0.296875 C 2.597656 -0.28125 2.660156 -0.265625 2.75 -0.25 C 2.835938 -0.230469 2.910156 -0.21875 2.972656 -0.210938 L 2.972656 0 L 0.828125 0 L 0.828125 -0.210938 C 0.878906 -0.21875 0.953125 -0.226562 1.046875 -0.234375 C 1.144531 -0.246094 1.207031 -0.257812 1.242188 -0.269531 C 1.3125 -0.300781 1.359375 -0.339844 1.382812 -0.386719 C 1.40625 -0.4375 1.417969 -0.496094 1.417969 -0.5625 L 1.417969 -3.609375 L 1.292969 -3.609375 C 1.230469 -3.609375 1.15625 -3.605469 1.074219 -3.601562 C 0.988281 -3.59375 0.917969 -3.589844 0.859375 -3.582031 C 0.753906 -3.566406 0.640625 -3.464844 0.515625 -3.277344 C 0.390625 -3.089844 0.304688 -2.914062 0.246094 -2.75 L 0.0351562 -2.75 L 0.0351562 -3.847656 L 3.765625 -3.847656 Z "/>
</g>
<g id="glyph-0-6">
<path d="M 3.601562 -2.867188 L 3.394531 -2.867188 C 3.339844 -3.011719 3.25 -3.160156 3.121094 -3.3125 C 2.992188 -3.460938 2.867188 -3.546875 2.738281 -3.574219 C 2.6875 -3.589844 2.609375 -3.597656 2.511719 -3.597656 C 2.417969 -3.601562 2.335938 -3.601562 2.273438 -3.601562 L 1.714844 -3.601562 L 1.714844 -2.117188 L 2.109375 -2.117188 C 2.210938 -2.117188 2.300781 -2.128906 2.382812 -2.152344 C 2.464844 -2.175781 2.539062 -2.222656 2.605469 -2.289062 C 2.644531 -2.332031 2.6875 -2.40625 2.730469 -2.507812 C 2.773438 -2.613281 2.800781 -2.707031 2.8125 -2.785156 L 3.019531 -2.785156 L 3.019531 -1.175781 L 2.8125 -1.175781 C 2.800781 -1.253906 2.773438 -1.347656 2.730469 -1.464844 C 2.6875 -1.578125 2.644531 -1.65625 2.605469 -1.699219 C 2.542969 -1.765625 2.472656 -1.8125 2.394531 -1.835938 C 2.3125 -1.859375 2.21875 -1.871094 2.109375 -1.871094 L 1.714844 -1.871094 L 1.714844 -0.761719 C 1.714844 -0.648438 1.722656 -0.554688 1.742188 -0.488281 C 1.757812 -0.417969 1.789062 -0.367188 1.835938 -0.332031 C 1.882812 -0.296875 1.945312 -0.273438 2.023438 -0.261719 C 2.101562 -0.253906 2.207031 -0.246094 2.34375 -0.246094 C 2.40625 -0.246094 2.484375 -0.246094 2.570312 -0.25 C 2.660156 -0.25 2.738281 -0.257812 2.804688 -0.265625 C 2.882812 -0.273438 2.953125 -0.289062 3.019531 -0.304688 C 3.085938 -0.324219 3.132812 -0.351562 3.164062 -0.386719 C 3.253906 -0.472656 3.351562 -0.609375 3.457031 -0.789062 C 3.566406 -0.972656 3.640625 -1.109375 3.671875 -1.199219 L 3.871094 -1.199219 L 3.796875 0 L 0.1875 0 L 0.1875 -0.210938 C 0.238281 -0.214844 0.304688 -0.222656 0.394531 -0.234375 C 0.480469 -0.246094 0.542969 -0.257812 0.578125 -0.269531 C 0.648438 -0.300781 0.691406 -0.335938 0.714844 -0.382812 C 0.738281 -0.425781 0.75 -0.480469 0.75 -0.550781 L 0.75 -3.265625 C 0.75 -3.332031 0.742188 -3.386719 0.722656 -3.425781 C 0.703125 -3.46875 0.652344 -3.507812 0.578125 -3.542969 C 0.53125 -3.566406 0.464844 -3.585938 0.378906 -3.601562 C 0.292969 -3.621094 0.230469 -3.632812 0.1875 -3.636719 L 0.1875 -3.847656 L 3.601562 -3.847656 Z "/>
</g>
<g id="glyph-0-7">
<path d="M 4.621094 -3.636719 C 4.566406 -3.632812 4.492188 -3.621094 4.394531 -3.601562 C 4.296875 -3.582031 4.210938 -3.550781 4.144531 -3.503906 C 4.078125 -3.457031 4.027344 -3.375 4 -3.257812 C 3.972656 -3.140625 3.957031 -2.964844 3.957031 -2.730469 L 3.957031 -1.296875 C 3.957031 -0.875 3.816406 -0.535156 3.53125 -0.28125 C 3.242188 -0.0234375 2.867188 0.105469 2.394531 0.105469 C 1.847656 0.105469 1.421875 -0.0195312 1.125 -0.265625 C 0.824219 -0.511719 0.671875 -0.859375 0.671875 -1.300781 L 0.671875 -3.273438 C 0.671875 -3.335938 0.660156 -3.390625 0.636719 -3.433594 C 0.613281 -3.480469 0.566406 -3.519531 0.496094 -3.554688 C 0.449219 -3.582031 0.390625 -3.597656 0.324219 -3.613281 C 0.253906 -3.628906 0.199219 -3.636719 0.15625 -3.644531 L 0.15625 -3.847656 L 2.171875 -3.847656 L 2.171875 -3.644531 C 2.113281 -3.640625 2.054688 -3.632812 1.996094 -3.625 C 1.9375 -3.613281 1.875 -3.597656 1.816406 -3.578125 C 1.746094 -3.554688 1.699219 -3.519531 1.675781 -3.46875 C 1.652344 -3.417969 1.640625 -3.363281 1.640625 -3.300781 L 1.640625 -1.355469 C 1.640625 -0.976562 1.726562 -0.695312 1.894531 -0.523438 C 2.0625 -0.351562 2.304688 -0.261719 2.625 -0.261719 C 2.9375 -0.261719 3.183594 -0.359375 3.363281 -0.550781 C 3.542969 -0.742188 3.632812 -1.023438 3.632812 -1.398438 L 3.632812 -2.703125 C 3.632812 -2.933594 3.617188 -3.105469 3.585938 -3.222656 C 3.554688 -3.335938 3.503906 -3.417969 3.441406 -3.46875 C 3.394531 -3.507812 3.3125 -3.546875 3.195312 -3.578125 C 3.078125 -3.609375 2.996094 -3.628906 2.949219 -3.636719 L 2.949219 -3.847656 L 4.621094 -3.847656 Z "/>
</g>
</g>
</defs>
<g fill="rgb(18.431373%, 41.960784%, 100%)" fill-opacity="1">
<use xlink:href="#glyph-0-0" x="30" y="25.094727"/>
<use xlink:href="#glyph-0-1" x="34" y="25.094727"/>
<use xlink:href="#glyph-0-2" x="38" y="25.094727"/>
<use xlink:href="#glyph-0-3" x="42" y="25.094727"/>
<use xlink:href="#glyph-0-4" x="47" y="25.094727"/>
<use xlink:href="#glyph-0-5" x="49" y="25.094727"/>
<use xlink:href="#glyph-0-6" x="53" y="25.094727"/>
<use xlink:href="#glyph-0-2" x="57" y="25.094727"/>
<use xlink:href="#glyph-0-5" x="61" y="25.094727"/>
<use xlink:href="#glyph-0-7" x="65" y="25.094727"/>
<use xlink:href="#glyph-0-1" x="70" y="25.094727"/>
<use xlink:href="#glyph-0-6" x="74" y="25.094727"/>
</g>
</svg>
